Coordinates
version=1
nRows=19
nColumns=36
inDegrees=yes

Units are S.I. units (second, meters, Newtons, ...)
If the header above contains a line with 'inDegrees', this indicates whether rotational values are in degrees (yes) or radians (no).

endheader
time	pelvis_tilt	pelvis_list	pelvis_rotation	pelvis_tx	pelvis_ty	pelvis_tz	hip_flexion_r	hip_adduction_r	hip_rotation_r	knee_angle_r	knee_angle_r_beta	ankle_angle_r	subtalar_angle_r	mtp_angle_r	hip_flexion_l	hip_adduction_l	hip_rotation_l	knee_angle_l	knee_angle_l_beta	ankle_angle_l	subtalar_angle_l	mtp_angle_l	lumbar_extension	lumbar_bending	lumbar_rotation	arm_flex_r	arm_add_r	arm_rot_r	elbow_flex_r	pro_sup_r	arm_flex_l	arm_add_l	arm_rot_l	elbow_flex_l	pro_sup_l
      3.81666670	      1.82930158	      7.75874441	     15.92515855	      0.87978819	      0.99544808	      0.11941326	     42.48610471	    -13.84659990	      7.60233132	     29.42974839	      0.51364601	     -2.19455237	      4.95015230	     -7.49999987	     13.66444839	     15.47154911	      5.75438388	     34.91535651	      0.60938793	     21.12871586	    -11.55290621	     -7.49999987	    -29.04860817	    -10.68405877	     -3.63889980	     41.70258544	     -3.47846557	     52.44713797	    125.07695268	     87.93666197	     56.91405834	     -8.79705634	     72.19565689	    125.91241046	     91.97681636
      3.83333330	      2.11666873	      7.39110770	     15.70536589	      0.87990465	      1.00047957	      0.12030933	     41.77789184	    -13.37858341	      7.31488090	     29.18185460	      0.50931944	     -1.99467579	      4.85831553	     -7.49999987	     12.48353344	     14.87144783	      5.93897617	     33.17086022	      0.57894073	     20.24036041	    -11.13473786	     -7.49999987	    -28.11718481	    -10.39816624	     -3.29101929	     40.74013613	     -3.93029588	     53.02260650	    125.36405857	     88.02489538	     55.64554251	     -9.00230877	     72.33359335	    125.69448824	     92.03482934
      3.85000000	      3.12625323	      6.92916883	     15.32604022	      0.87944311	      1.00595324	      0.12113660	     40.23799899	    -12.63918363	      6.82217161	     28.70739099	      0.50103849	     -1.94995502	      4.72457314	     -7.49999987	     10.61303697	     13.98457609	      6.15636472	     31.42629770	      0.54849237	     19.10643597	    -11.16465662	     -7.49999987	    -28.07404112	     -9.80536976	     -2.76418486	     40.24101727	     -4.52164406	     53.65149886	    125.89248547	     88.49745299	     54.55828283	     -8.78835975	     71.43544845	    125.07906529	     92.31711072
      3.86666670	      3.76009906	      6.45580619	     14.95013611	      0.88005444	      1.00989000	      0.12184814	     39.20441753	    -11.90941922	      6.53881078	     28.46740779	      0.49685000	     -1.85984920	      4.51967031	     -7.49999987	      9.20774081	     13.14233128	      6.16172886	     29.82043518	      0.52046478	     18.09134725	    -11.00296324	     -7.49999987	    -27.56889798	     -9.32161558	     -2.36208368	     39.69740128	     -4.94806624	     54.14242091	    126.09192957	     88.16607072	     53.81209410	     -8.51383532	     70.54162893	    124.71219364	     91.82811772
      3.88333330	      4.26923602	      5.91339207	     14.57343148	      0.88121305	      1.01326850	      0.12178827	     38.38554625	    -11.13443384	      6.30130910	     28.53291340	      0.49799328	     -1.67986516	      4.26013703	     -7.49999987	      8.01307671	     12.26086586	      6.07036692	     28.39250982	      0.49554278	     17.22519457	    -10.77355515	     -7.49999987	    -26.86116417	     -8.82153072	     -2.06149325	     39.39151854	     -5.24243975	     54.50360944	    126.28298995	     87.93886302	     53.32857747	     -8.18529517	     69.63014413	    124.52432388	     91.41506909
      3.90000000	      4.73047247	      5.33322730	     14.26856844	      0.88223647	      1.01568125	      0.12016867	     37.75786397	    -10.38128251	      6.11596680	     29.03992152	      0.50684224	     -1.37156658	      3.88257869	     -7.49999987	      7.04121258	     11.42106458	      5.99710172	     27.31806030	      0.47679010	     16.61587638	    -10.49481509	     -7.49999987	    -26.13049057	     -8.18212561	     -1.85296727	     39.28246375	     -5.56525182	     55.05079195	    126.23729559	     87.93130956	     52.94453345	     -7.86154216	     68.89284251	    124.17408479	     91.19546723
      3.91666670	      4.66938325	      4.79367451	     14.08778903	      0.88362783	      1.01692190	      0.11852800	     37.87382736	     -9.83247329	      5.93572606	     29.95015800	      0.52272887	     -0.87102583	      3.56144822	     -7.49999987	      6.78790725	     10.82702227	      5.96047074	     26.62815690	      0.46474901	     16.17740523	    -10.32614182	     -7.49999987	    -25.01708599	     -7.65861793	     -1.68330788	     38.99540860	     -5.71621013	     55.50582210	    126.15183477	     87.51955798	     52.42982317	     -7.82089134	     68.68396589	    123.81497959	     90.67436928
      3.93333330	      4.65684972	      4.27584290	     13.98728978	      0.88513841	      1.01600817	      0.11857776	     38.04046372	     -9.31555278	      5.78691060	     30.97427355	      0.54060306	     -0.28679768	      3.11389918	     -7.49999987	      6.60916590	     10.28647842	      5.91958045	     26.18528618	      0.45701946	     16.03157193	    -10.13805175	     -7.49999987	    -24.04373282	     -7.11937378	     -1.64902662	     38.75558463	     -5.79464616	     55.59851896	    125.94613624	     86.90639172	     52.08023005	     -7.69798125	     68.39948694	    123.66211814	     89.87021537
      3.95000000	      4.54471185	      3.80606520	     13.92630029	      0.88654520	      1.01482213	      0.12064549	     38.38650086	     -8.86840837	      5.61865768	     31.95070700	      0.55764504	      0.28564616	      2.73218817	     -7.49999987	      6.65106315	      9.84762353	      5.90867994	     25.94928450	      0.45290045	     16.00143381	    -10.24069065	     -7.49999987	    -23.01268794	     -6.71036845	     -1.59962168	     38.42752538	     -5.54206934	     55.23478137	    125.72403125	     86.42633749	     51.84440792	     -7.62694799	     68.05492589	    123.80587254	     89.34850210
      3.96666670	      4.67447421	      3.31769025	     13.79647174	      0.88891529	      1.01564179	      0.12335393	     38.41052047	     -8.27920477	      5.43857825	     32.70392542	      0.57079118	      0.77683410	      2.29502877	     -7.49999987	      6.41747825	      9.26147818	      5.74559991	     25.68079813	      0.44821448	     16.28056765	     -9.92742513	     -7.49999987	    -22.21926855	     -6.20835488	     -1.88429112	     38.24164167	     -4.55429753	     54.73016167	    125.01058416	     89.80391666	     51.26553582	     -8.09898052	     67.04164443	    124.52370523	     91.83043529
      3.98333330	      4.69535306	      2.82002602	     13.67278586	      0.89246025	      1.01861727	      0.12487403	     38.40964335	     -7.68537774	      5.21728970	     33.26618231	      0.58060441	      1.16949726	      1.88103760	     -7.49999987	      6.11240382	      8.67345141	      5.70371017	     25.14533099	      0.43886882	     16.44634121	     -9.62866429	     -7.49999987	    -21.28126062	     -5.95833172	     -1.74182007	     37.23426027	     -3.89343460	     54.33548278	    124.82700452	     88.71536613	     50.72861098	     -8.29593686	     67.09354446	    124.67025697	     90.65534535
      4.00000000	      4.96938006	      2.29415770	     13.54329891	      0.89494604	      1.02257598	      0.12422498	     37.93825864	     -7.02064846	      4.95571632	     33.49354658	      0.58457267	      1.38951085	      1.45555371	     -7.49999987	      5.39688085	      7.95970476	      5.62671455	     24.34438597	      0.42488969	     16.38793495	     -9.16108318	     -7.49999987	    -20.74702549	     -5.47440505	     -1.68169608	     36.50329697	     -3.40278123	     54.48264820	    124.60611721	     87.52419240	     50.08618474	     -8.52720919	     67.14271180	    124.75416562	     89.39508927
      4.01666670	      5.16609118	      1.79388210	     13.43068422	      0.89591094	      1.02629679	      0.12223068	     37.45930329	     -6.46901569	      4.60419176	     33.48600729	      0.58444108	      1.46849207	      1.17085156	     -7.49999987	      4.77047144	      7.31602568	      5.52107704	     23.53424384	      0.41075004	     16.20202647	     -8.64404114	     -7.49999987	    -20.31509352	     -4.95056306	     -1.60362543	     35.93818692	     -3.37426414	     54.83990973	    124.41061415	     87.83468927	     49.33621166	     -8.60019967	     67.28456386	    124.64083765	     89.57289840
      4.03333330	      5.42386501	      1.33611406	     13.36399573	      0.89666618	      1.02911924	      0.12090138	     36.84744896	     -6.00116807	      4.24196387	     33.23845279	      0.58012044	      1.45652811	      1.00264238	     -7.49999987	      4.15685703	      6.73015130	      5.43611656	     22.79749718	      0.39789139	     15.82695681	     -8.19409213	     -7.49999987	    -20.13609431	     -4.38161519	     -1.48785069	     35.60391114	     -3.72395887	     54.93600170	    124.19921968	     88.27022715	     48.74551548	     -8.44735115	     67.61156339	    124.41970246	     89.81062942
      4.05000000	      5.23781715	      0.92717132	     13.33424974	      0.89794937	      1.02947226	      0.12068430	     36.76021155	     -5.70639184	      3.90211794	     32.96360567	      0.57532345	      1.52076177	      1.02945401	     -7.49999987	      4.14535587	      6.32984345	      5.38087171	     22.28524794	      0.38895095	     15.33231106	     -8.00918351	     -7.49999987	    -19.47479359	     -3.92917490	     -1.33849792	     35.24814032	     -4.01090303	     54.76970101	    124.00582040	     87.90197774	     48.06375581	     -8.30263809	     68.00438044	    124.52163470	     89.41585382
      4.06666670	      5.39373181	      0.53451408	     13.31004823	      0.89859876	      1.02871509	      0.12075223	     36.31054740	     -5.34791332	      3.55341044	     32.57152631	      0.56848038	      1.58339876	      1.05690681	     -7.49999987	      3.86400023	      5.85379495	      5.35033141	     21.92666196	      0.38269245	     15.04749193	     -7.78903580	     -7.49999987	    -19.26290921	     -3.51996843	     -0.86155514	     35.00880484	     -4.35132054	     53.85907073	    124.27961918	     91.43811764	     48.12289481	     -7.52600729	     68.42973309	    124.40905625	     92.10879121
      4.08333330	      5.29891234	      0.22674942	     13.28459964	      0.89903315	      1.02719843	      0.12105063	     36.19059534	     -5.10951247	      3.29139456	     32.23748515	      0.56265026	      1.70536776	      1.19590899	     -7.49999987	      3.89416881	      5.54481795	      5.39084509	     21.67964839	      0.37838125	     14.74259203	     -7.75427009	     -7.49999987	    -18.78444728	     -3.15883186	     -0.78691334	     35.05040532	     -4.20103157	     53.71184572	    124.42995188	     90.37057186	     48.10864594	     -7.01932962	     68.69731043	    125.03131944	     91.14429843
      4.10000000	      4.97729004	     -0.04489214	     13.21778072	      0.89962361	      1.02632408	      0.12241289	     36.36603469	     -4.88664486	      3.16160687	     31.93460175	      0.55736395	      1.79180935	      1.36058676	     -7.49999987	      4.19225923	      5.33050017	      5.41506634	     21.48352248	      0.37495820	     14.42910367	     -7.83154775	     -7.49999987	    -18.08012485	     -2.93155411	     -0.66316431	     34.92509273	     -3.87756579	     53.59789164	    124.63529839	     89.77302292	     48.04763128	     -6.58979822	     68.95752433	    125.78125754	     90.67613043
      4.11666670	      5.05929892	     -0.25440772	     13.17768046	      0.89990890	      1.02721699	      0.12459047	     36.04197720	     -4.61385147	      2.93682201	     31.43047803	      0.54856533	      1.67826193	      1.46358066	     -7.49999987	      4.03605889	      5.04048319	      5.34988952	     21.18409444	      0.36973220	     14.21615384	     -7.73326129	     -7.49999987	    -18.03791085	     -2.77933543	     -0.39149311	     35.02176314	     -3.62663243	     53.59713520	    124.71954516	     88.73461644	     48.41240338	     -6.31323886	     69.64030347	    126.29434211	     89.87454099
